<svg width="24" height="24" viewBox="0 0 24 24" fill="none" xmlns="http://www.w3.org/2000/svg">
  <path d="M15.5 12C15.5 10.62 14.38 9.5 13 9.5C11.62 9.5 10.5 10.62 10.5 12C10.5 13.38 11.62 14.5 13 14.5H15.5V12Z" fill="#9c2a2a"/>
  <path d="M7.5 15H5.5V18C5.5 19.1 6.4 20 7.5 20H19.5V15H14.5" stroke="#9c2a2a" stroke-width="1.5" stroke-linecap="round" stroke-linejoin="round"/>
  <path d="M16.5 8H19.5V10" stroke="#9c2a2a" stroke-width="1.5" stroke-linecap="round" stroke-linejoin="round"/>
  <path d="M19.5 10V5C19.5 4.45 19.05 4 18.5 4H13.5V8" stroke="#9c2a2a" stroke-width="1.5" stroke-linecap="round" stroke-linejoin="round"/>
  <path d="M11.99 2C6.47 2 2 6.48 2 12C2 17.52 6.47 22 11.99 22" stroke="#9c2a2a" stroke-width="1.5" stroke-linecap="round" stroke-linejoin="round"/>
</svg>